<?xml version="1.0" encoding="UTF-8"?>
<svg id="Capa_1" xmlns="http://www.w3.org/2000/svg" viewBox="0 0 1088 237.6">
  <defs>
    <style>
      .cls-1 {
        fill: #2b34d8;
      }

      .cls-1, .cls-2 {
        font-family: MinionVariableConcept-Roman, 'Minion Variable Concept';
        font-size: 200px;
        font-variation-settings: 'wght' 400, 'opsz' 11;
      }

      .cls-3 {
        fill: none;
        stroke: #2b34d8;
        stroke-linecap: square;
        stroke-miterlimit: 10;
        stroke-width: 4px;
      }

      .cls-2 {
        fill: #fff;
      }

      .cls-4 {
        letter-spacing: 0em;
      }

      .cls-5 {
        letter-spacing: .02em;
      }

      .cls-6 {
        letter-spacing: .02em;
      }

      .cls-7 {
        letter-spacing: 0em;
      }

      .cls-8 {
        letter-spacing: 0em;
      }
    </style>
  </defs>
  <g>
    <text class="cls-1" transform="translate(0 165) scale(.87 1)"><tspan class="cls-8" x="0" y="0">Z</tspan><tspan x="124.8" y="0">EN</tspan></text>
    <text class="cls-2" transform="translate(473 165) scale(.87 1)"><tspan class="cls-5" x="0" y="0">R</tspan><tspan class="cls-6" x="126.6" y="0">Y</tspan><tspan class="cls-7" x="237.99" y="0">O</tspan><tspan class="cls-4" x="389.99" y="0">K</tspan><tspan x="518.79" y="0">U</tspan></text>
  </g>
  <g>
    <g>
      <path class="cls-3" d="M370.72,84.83l-17.84,17.97,17.88,18v18h17.87s17.88,18,17.88,18,17.87-18,17.87-18h17.88v-18s17.87-18,17.87-18c0,0-17.87-18-17.87-18v-18h-17.72s-.08,0-.15,0l-.11-.11c-1.52-1.53-17.76-17.89-17.76-17.89,0,0-2.08,2.1-5.24,5.27-3.39,3.41-8.02,8.08-12.64,12.73h-17.88s0,7.67-.03,18.03Z"/>
      <path class="cls-3" d="M370.75,84.8s48.18,48.52,53.2,53.58"/>
      <line class="cls-3" x1="388.62" y1="66.8" x2="442.25" y2="120.8"/>
      <path class="cls-3" d="M424.28,66.89c-2.46,2.48-53.53,53.91-53.53,53.91"/>
      <path class="cls-3" d="M388.88,138.55c3.96-3.98,53.37-53.75,53.37-53.75"/>
      <path class="cls-3" d="M440,69.43c-13.65,13.75-61.02,60.98-67,67"/>
      <path class="cls-3" d="M372,68.43c2.86,2.88,52.87,52.78,66,66"/>
      <path class="cls-3" d="M439.3,135.83c1.07,1.08.2,1.1.7,1.6"/>
    </g>
    <path class="cls-3" d="M406.5,30.8c39.49,0,71.5,32.24,71.5,72s-32.01,72-71.5,72-71.5-32.24-71.5-72,31.99-71.98,71.46-72"/>
    <path class="cls-3" d="M335.35,102.8h35.4"/>
    <path class="cls-3" d="M406.5,31.55v34.25"/>
    <path class="cls-3" d="M477.86,102.8c-2.45,0-34.36.5-34.36.5"/>
    <path class="cls-3" d="M406.5,174.36v-35.56"/>
  </g>
</svg>